<?xml version="1.0" standalone="no"?>
<!DOCTYPE svg PUBLIC "-//W3C//DTD SVG 20010904//EN"
 "http://www.w3.org/TR/2001/REC-SVG-20010904/DTD/svg10.dtd">
<svg version="1.0" xmlns="http://www.w3.org/2000/svg"
 width="300.000000pt" height="300.000000pt" viewBox="0 0 300.000000 300.000000"
 preserveAspectRatio="xMidYMid meet">
<metadata>
Created by potrace 1.14, written by Peter Selinger 2001-2017
</metadata>
<g transform="translate(0.000000,300.000000) scale(0.100000,-0.100000)"
fill="#000000" stroke="none">
<path d="M1408 2865 c-2 -1 -30 -5 -63 -8 -237 -21 -520 -139 -705 -296 -168
-142 -295 -305 -374 -481 -20 -47 -41 -92 -46 -101 -21 -40 -67 -230 -77 -319
-11 -102 -4 -356 11 -401 3 -8 7 -27 10 -44 7 -48 51 -185 86 -267 29 -70 127
-236 175 -298 77 -96 280 -275 373 -328 177 -100 361 -162 554 -186 26 -4 364
-7 751 -8 518 0 709 2 725 11 26 14 51 60 45 81 -11 37 -28 59 -52 68 -15 6
-155 10 -329 10 -166 0 -305 2 -308 4 -3 3 17 18 43 33 73 43 160 112 239 190
75 74 174 196 174 213 0 6 4 12 9 14 14 5 107 185 136 263 55 146 89 335 88
495 -1 206 -40 374 -133 575 -32 71 -119 216 -140 235 -3 3 -20 23 -39 45 -83
99 -235 245 -254 245 -3 0 -29 16 -58 36 -196 132 -462 214 -711 219 -70 1
-129 1 -130 0z m350 -199 c60 -13 145 -38 188 -56 453 -179 758 -628 755
-1110 -1 -91 -3 -110 -16 -200 -61 -406 -367 -778 -760 -923 -94 -35 -141 -47
-260 -67 -54 -10 -311 -6 -360 5 -16 3 -49 10 -72 15 -265 60 -522 228 -692
455 -99 131 -197 360 -216 505 -3 25 -9 53 -12 64 -7 26 -6 241 2 296 3 25 13
76 22 114 8 37 16 73 18 80 7 36 84 209 110 248 14 21 25 40 25 44 0 3 24 38
54 77 105 140 249 264 394 340 113 60 263 112 357 124 22 3 58 8 80 12 81 14
269 3 383 -23z"/>
<path d="M1321 2594 c-235 -39 -435 -143 -606 -317 -115 -117 -179 -213 -243
-365 -103 -240 -106 -562 -8 -810 122 -310 366 -547 671 -653 155 -53 367 -76
505 -54 25 3 57 8 71 11 54 8 197 54 264 84 205 92 398 277 513 490 162 302
169 689 19 995 -61 125 -126 216 -221 311 -252 252 -609 366 -965 308z m299
-184 c114 -58 165 -192 121 -315 -20 -54 -35 -79 -76 -130 -46 -57 -55 -66
-109 -102 -37 -24 -43 -25 -75 -13 -50 18 -82 45 -140 117 -130 163 -117 342
30 435 67 42 176 45 249 8z m-698 -508 c89 -40 204 -173 229 -264 15 -59 -2
-93 -73 -139 -117 -75 -272 -104 -358 -67 -81 35 -144 116 -155 201 -27 198
176 350 357 269z m1376 -1 c92 -47 146 -135 144 -236 -1 -76 -21 -125 -75
-178 -51 -51 -119 -76 -197 -72 -124 7 -309 103 -321 165 -4 21 11 100 19 100
4 0 13 12 19 28 18 40 87 119 136 157 85 65 191 79 275 36z m-700 -264 c110
-72 96 -242 -25 -293 -138 -59 -281 74 -229 211 41 105 161 144 254 82z m-338
-425 c41 -41 62 -119 66 -248 4 -108 3 -113 -27 -174 -49 -97 -135 -149 -236
-144 -167 9 -282 189 -229 356 38 117 216 235 359 237 30 1 45 -6 67 -27z
m690 -4 c68 -27 150 -86 185 -132 30 -40 55 -113 55 -162 0 -43 -26 -118 -56
-163 -13 -20 -49 -52 -80 -71 -47 -28 -67 -34 -113 -34 -159 0 -263 117 -264
298 0 135 41 267 90 288 29 13 125 0 183 -24z"/>
</g>
</svg>
